<?xml version="1.0" encoding="UTF-8" standalone="no"?>
<svg
   id="Icons"
   height="685.20587"
   viewBox="0 0 89.309256 80.297563"
   width="762.10565"
   version="1.1"
   sodipodi:docname="trollroom-logo-inkscape.svg"
   inkscape:version="1.2.1 (9c6d41e, 2022-07-14)"
   xmlns:inkscape="http://www.inkscape.org/namespaces/inkscape"
   xmlns:sodipodi="http://sodipodi.sourceforge.net/DTD/sodipodi-0.dtd"
   xmlns="http://www.w3.org/2000/svg"
   xmlns:svg="http://www.w3.org/2000/svg">
  <defs
     id="defs59" />
  <sodipodi:namedview
     id="namedview57"
     pagecolor="#ffffff"
     bordercolor="#000000"
     borderopacity="0.25"
     inkscape:showpageshadow="2"
     inkscape:pageopacity="0.0"
     inkscape:pagecheckerboard="0"
     inkscape:deskcolor="#d1d1d1"
     showgrid="false"
     inkscape:zoom="0.87519459"
     inkscape:cx="431.90395"
     inkscape:cy="357.06345"
     inkscape:window-width="1617"
     inkscape:window-height="997"
     inkscape:window-x="63"
     inkscape:window-y="25"
     inkscape:window-maximized="0"
     inkscape:current-layer="Icons" />
  <path
     d="m 33.567056,62.198146 c 16.017286,-1.415988 29.53784,-13.276642 29.53784,-29.020749 0,-0.729024 -0.02729,-1.458047 -0.08186,-2.173052 14.693881,0.9253 26.277081,11.594281 26.277081,24.604549 0,5.411599 -2.005576,10.416627 -5.40277,14.496355 0.477521,1.317851 1.186969,2.481485 1.937352,3.462862 0.65488,0.869221 1.323406,1.542166 1.814572,2.004816 0.245583,0.224315 0.450232,0.40657 0.586656,0.518728 0.06822,0.05607 0.122792,0.09814 0.150081,0.112157 l 0.02724,0.02804 v 0 0 c 0.764028,0.574807 1.077823,1.584224 0.791317,2.509523 -0.286517,0.9253 -1.132402,1.556185 -2.073788,1.556185 -2.974252,0 -5.975787,-0.785102 -8.472519,-1.75246 -1.255188,-0.49069 -2.428516,-1.037457 -3.438123,-1.598245 -4.215793,2.116973 -9.086466,3.336686 -14.298224,3.336686 -13.043036,0 -24.039571,-7.654749 -27.354904,-18.085395 z"
     id="path731"
     style="fill:#c6403f;fill-opacity:1;stroke-width:0.138303" />
  <path
     d="m 19.819013,27.850001 -18.93900028,23.509 a 4,4 0 0 0 0.28999998,5.33 l 3.17,3.17 a 4,4 0 0 0 5.33,0.29 l 23.5090003,-18.939 z"
     fill="#2980ba"
     id="path6"
     inkscape:label="cone"
     style="display:inline;fill:#9db4c0;fill-opacity:1" />
  <g
     id="g528"
     transform="translate(6.747864,0.88672655)"
     inkscape:label="crosshair"
     style="display:inline;fill:#c6403f;fill-opacity:1">
    <path
       d="m 24.275085,54.738273 c -14.13,0 -25.6250001,-11.495 -25.6250001,-25.625 0,-14.13 11.4950001,-25.6249995 25.6250001,-25.6249995 14.13,0 25.625,11.4949995 25.625,25.6249995 0,14.13 -11.495,25.625 -25.625,25.625 z m 0,-46.2499995 c -11.3725,0 -20.6250001,9.2524995 -20.6250001,20.6249995 0,11.3725 9.2525001,20.625 20.6250001,20.625 11.3725,0 20.625,-9.2525 20.625,-20.625 0,-11.3725 -9.2525,-20.6249995 -20.625,-20.6249995 z"
       id="path446"
       style="fill:#c6403f;fill-opacity:1;stroke-width:2.5" />
    <path
       d="m 24.275085,12.863273 c -1.38,0 -2.5,-1.12 -2.5,-2.5 V 1.6132734 c 0,-1.37999995 1.12,-2.49999995 2.5,-2.49999995 1.38,0 2.5,1.12 2.5,2.49999995 v 8.7499996 c 0,1.38 -1.12,2.5 -2.5,2.5 z"
       id="path448"
       style="fill:#c6403f;fill-opacity:1;stroke-width:2.5" />
    <path
       d="m 51.775085,31.613273 h -8.75 c -1.38,0 -2.5,-1.12 -2.5,-2.5 0,-1.38 1.12,-2.5 2.5,-2.5 h 8.75 c 1.38,0 2.5,1.12 2.5,2.5 0,1.38 -1.12,2.5 -2.5,2.5 z"
       id="path450"
       style="fill:#c6403f;fill-opacity:1;stroke-width:2.5" />
    <path
       d="m 24.275085,59.113273 c -1.38,0 -2.5,-1.12 -2.5,-2.5 v -8.75 c 0,-1.38 1.12,-2.5 2.5,-2.5 1.38,0 2.5,1.12 2.5,2.5 v 8.75 c 0,1.38 -1.12,2.5 -2.5,2.5 z"
       id="path452"
       style="fill:#c6403f;fill-opacity:1;stroke-width:2.5" />
    <path
       d="m 5.5250849,31.613273 h -8.75 c -1.38,0 -2.5,-1.12 -2.5,-2.5 0,-1.38 1.12,-2.5 2.5,-2.5 h 8.75 c 1.38,0 2.5,1.12 2.5,2.5 0,1.38 -1.12,2.5 -2.5,2.5 z"
       id="path454"
       style="fill:#c6403f;fill-opacity:1;stroke-width:2.5" />
  </g>
  <path
     d="m 53.532013,7.4970011 c -9.325373,-9.3354238 -25.301946,-3.2266262 -26.02,9.9489999 15.0545,15.854611 0.03121,0.480155 16.071,16.071 13.175626,-0.718054 19.284424,-16.694627 9.949,-26.0199999 z"
     fill="#547580"
     id="path2"
     style="display:inline;fill:#5c6b73;fill-opacity:1"
     inkscape:label="bulb"
     sodipodi:nodetypes="cccc" />
  <g
     fill="#3f5c6c"
     id="g54"
     inkscape:label="dots"
     style="display:inline;fill:#253237;fill-opacity:1"
     transform="translate(-1.0009873,2.0300012)">
    <circle
       cx="50.936001"
       cy="9.0640001"
       r="1"
       id="circle8"
       style="fill:#253237;fill-opacity:1" />
    <circle
       cx="48.057999"
       cy="6.1869998"
       r="1"
       id="circle10"
       style="fill:#253237;fill-opacity:1" />
    <circle
       cx="53.813"
       cy="11.942"
       r="1"
       id="circle12"
       style="fill:#253237;fill-opacity:1" />
    <circle
       cx="39.425999"
       cy="20.573999"
       r="1"
       id="circle14"
       style="fill:#253237;fill-opacity:1" />
    <circle
       cx="36.548"
       cy="17.697001"
       r="1"
       id="circle16"
       style="fill:#253237;fill-opacity:1" />
    <circle
       cx="42.303001"
       cy="23.452"
       r="1"
       id="circle18"
       style="fill:#253237;fill-opacity:1" />
    <circle
       cx="45.181"
       cy="9.0640001"
       r="1"
       id="circle20"
       style="fill:#253237;fill-opacity:1" />
    <circle
       cx="42.303001"
       cy="6.1869998"
       r="1"
       id="circle22"
       style="fill:#253237;fill-opacity:1" />
    <circle
       cx="53.813"
       cy="17.697001"
       r="1"
       id="circle24"
       style="fill:#253237;fill-opacity:1" />
    <circle
       cx="50.936001"
       cy="14.819"
       r="1"
       id="circle26"
       style="fill:#253237;fill-opacity:1" />
    <circle
       cx="48.057999"
       cy="11.942"
       r="1"
       id="circle28"
       style="fill:#253237;fill-opacity:1" />
    <circle
       cx="43.742001"
       cy="13.381"
       r="1"
       id="circle30"
       style="fill:#253237;fill-opacity:1" />
    <circle
       cx="40.863998"
       cy="10.503"
       r="1"
       id="circle32"
       style="fill:#253237;fill-opacity:1" />
    <circle
       cx="37.987"
       cy="7.625"
       r="1"
       id="circle34"
       style="fill:#253237;fill-opacity:1" />
    <circle
       cx="52.375"
       cy="22.013"
       r="1"
       id="circle36"
       style="fill:#253237;fill-opacity:1" />
    <circle
       cx="49.497002"
       cy="19.136"
       r="1"
       id="circle38"
       style="fill:#253237;fill-opacity:1" />
    <circle
       cx="46.618999"
       cy="16.257999"
       r="1"
       id="circle40"
       style="fill:#253237;fill-opacity:1" />
    <circle
       cx="40.863998"
       cy="16.257999"
       r="1"
       id="circle42"
       style="fill:#253237;fill-opacity:1" />
    <circle
       cx="37.987"
       cy="13.381"
       r="1"
       id="circle44"
       style="fill:#253237;fill-opacity:1" />
    <circle
       cx="35.109001"
       cy="10.503"
       r="1"
       id="circle46"
       style="fill:#253237;fill-opacity:1" />
    <circle
       cx="49.497002"
       cy="24.891001"
       r="1"
       id="circle48"
       style="fill:#253237;fill-opacity:1" />
    <circle
       cx="46.618999"
       cy="22.013"
       r="1"
       id="circle50"
       style="fill:#253237;fill-opacity:1" />
    <circle
       cx="43.742001"
       cy="19.136"
       r="1"
       id="circle52"
       style="fill:#253237;fill-opacity:1" />
  </g>
  <rect
     fill="#3b97d3"
     height="12.794067"
     rx="1.9996979"
     transform="rotate(45)"
     width="29.693516"
     x="28.302982"
     y="-7.120368"
     id="rect4"
     inkscape:label="block"
     style="display:inline;fill:#c2dfe3;fill-opacity:1;stroke-width:0.999849" />
  <g
     aria-label="M5M"
     id="text219"
     style="font-size:8.75px;font-family:Krungthep;-inkscape-font-specification:Krungthep;display:inline;stroke-width:0.117188"
     transform="rotate(45,21.175319,19.134842)"
     inkscape:label="m5m">
    <path
       d="m 24.883987,23.135593 v -6.5625 h 0.331543 l 3.117188,3.110352 3.113769,-3.110352 h 0.731446 v 6.5625 h -1.462891 v -4.012695 l -2.560058,2.560059 -2.539551,-2.560059 v 4.012695 z"
       style="fill:#253237;fill-opacity:1"
       id="path373" />
    <path
       d="m 33.63397,16.573093 h 4.375 l -0.0034,0.731446 h -2.915527 v 1.456054 h 1.462891 q 0.598144,0 1.02539,0.430664 0.430664,0.427247 0.430664,1.025391 v 1.462891 q 0,0.598144 -0.434082,1.028808 -0.430664,0.427246 -1.021972,0.427246 h -1.462891 q -1.288574,0 -1.456055,-1.456054 h 0.731446 q 0.05127,0.724609 0.724609,0.724609 h 0.731445 q 0.297364,0 0.512696,-0.211914 0.21875,-0.215332 0.21875,-0.512695 v -1.462891 q 0,-0.297363 -0.21875,-0.509277 -0.215332,-0.215332 -0.512696,-0.215332 h -2.1875 z"
       style="fill:#253237;fill-opacity:1"
       id="path375" />
    <path
       d="m 39.465012,23.135593 v -6.5625 h 0.331543 l 3.117187,3.110352 3.11377,-3.110352 h 0.731445 v 6.5625 h -1.462891 v -4.012695 l -2.560058,2.560059 -2.539551,-2.560059 v 4.012695 z"
       style="fill:#253237;fill-opacity:1"
       id="path377" />
  </g>
</svg>
